# xmcd
#
# Track frame offsets:
#	150
#	6788
#	23900
#	38250
#	60388
#	92063
#	108425
#	123638
#	146113
#	170025
#	186800
#	210045
#	231270
#
# Disc length: 3217 seconds
# Revision: 4
# Processed by: cddbd v1.5.2PL0 Copyright (c) Steve Scherf et al.
# Submitted via: dBpowerAMP V12.0
#
DISCID=a50c8f0d
DTITLE=James Cotton - Living The Blues
DYEAR=1994
DGENRE=Blues
TTITLE0=Mississippi Freight Train
TTITLE1=You Didn't Think About That
TTITLE2=Pacific Blues
TTITLE3=Take A Message
TTITLE4=Hungry Country Girl
TTITLE5=Hucklebuck
TTITLE6=One Little Piece Of Shade
TTITLE7=Living The Blues
TTITLE8=Black Knights
TTITLE9=Mississippi Saxophone
TTITLE10=Cotton In The Kitchen
TTITLE11=Certified
TTITLE12=Mississippi Freight Train
EXTD=
EXTT0=
EXTT1=
EXTT2=
EXTT3=
EXTT4=
EXTT5=
EXTT6=
EXTT7=
EXTT8=
EXTT9=
EXTT10=
EXTT11=
EXTT12=
PLAYORDER=
